<?xml version="1.0" encoding="utf-8"?>
<svg version="1.1" x="0px" y="0px" viewBox="0 0 48 48" enable-background="new 0 0 48 48" xmlns="http://www.w3.org/2000/svg">
  <g>
    <path d="M8,23.5803l5.8926-3.3664c0.7217-0.4141,1.1152-1.2432,0.9795-2.0654L14.1804,14H26v13h2V14c0-1.1025-0.8975-2-2-2H12.4336   L6,22.7227V42c0,1.1025,0.8975,2,2,2h10v-2H8V23.5803z M9.8264,20.2335l2.634-4.39l0.4391,2.6341L9.8264,20.2335z M22,11h-2V8h2V11   z M23,6h-3V4h3V6z M28,6h-3V4h3V6z M30,4h3v2h-3V4z M35,4h3v2h-3V4z M42,4v3h-2V4H42z M40,9h2v3h-2V9z M40,14h2v3h-2V14z M40,19h2   v3h-2V19z M40,24h2v3h-2V24z M40,29h2v3h-2V29z M39,34h3v2h-3V34z M34,34h3v2h-3V34z M32.8145,33.9971l-1,0.0029h0.9971v3   c0,3.4912-1.2314,5.4854-2,6.3887V44h-2v-1.4141l0.293-0.293c0.4004-0.4004,1.707-1.9658,1.707-5.293v-3h0.0029l-0.0029-0.9971   c-0.001-0.2676-0.1025-0.3604-0.1924-0.4111c-0.1719-0.1006-0.4355-0.0977-0.6133,0.0059   c-0.087,0.0505-0.1841,0.1426-0.1915,0.3724l0.0001,0.028h-0.0029l0.0029,0.999l-2,0.0059l-0.0029-1   c0-0.0085,0.0028-0.0159,0.0029-0.0244l-0.0029-1.4952C27.8105,31.1631,27.6465,31,27.3242,31c-0.001,0-0.001,0-0.002,0   c-0.1904,0-0.5107,0.0635-0.5107,0.4805l0.0029,2.5186h-0.0029V34h-0.9971l-1,0.001V34h-0.0029v-3.4814   c0-0.2656-0.1006-0.3574-0.1885-0.4082c-0.1729-0.1006-0.4375-0.0977-0.6143,0.0059c-0.0918,0.0527-0.1973,0.1465-0.1973,0.4014   l0.0029,3.4814l-2,0.002l-0.0029-2.4814c0-0.2666-0.1016-0.3584-0.1895-0.4092c-0.1709-0.0986-0.4346-0.0977-0.6133,0.0059   c-0.0918,0.0527-0.1973,0.1465-0.1973,0.4014l0.0029,2.4814h-0.0029v1.7217l-0.6836,0.2275   c-0.9531,0.3184-1.0605,0.7744-1.0967,0.9238c-0.1777,0.7568,0.3818,2.3145,2.4873,4.4209l0.293,0.293V44h-2v-1.5918   c-2.1455-2.2402-3.1123-4.3594-2.7266-5.9951c0.1543-0.6543,0.585-1.499,1.7266-2.0791V33h0.0018l-0.0018-1.4805   c-0.001-0.916,0.4346-1.6943,1.1953-2.1348c0.6563-0.3798,1.4644-0.4305,2.1737-0.1863c0.2019-0.3282,0.4755-0.61,0.8273-0.8137   c0.7969-0.4609,1.8242-0.4639,2.6152-0.0068c0.3381,0.1951,0.6005,0.4675,0.7996,0.7829c0.277-0.0994,0.5761-0.1604,0.8967-0.1608   c0.002,0,0.0029,0,0.0039,0c1.1033,0,1.9885,0.6509,2.3303,1.6055c0.6555-0.168,1.3719-0.0876,1.9607,0.251   c0.7578,0.4346,1.1943,1.2148,1.1973,2.1406L32.8145,33.9971z" style="fill: rgb(192, 192, 192);"/>
  </g>
</svg>