<?xml version="1.0" encoding="utf-8"?>
<svg version="1.1" x="0px" y="0px" viewBox="0 0 68 68" style="enable-background:new 0 0 68 68;" xmlns="http://www.w3.org/2000/svg">
  <g>
    <g>
      <path d="M38.8583984,59.3376465H5.5698242c-1.9667969,0-3.5668945-1.6000977-3.5668945-3.5664063V16.4714355    c0-0.6987305,0.2719727-1.355957,0.7661133-1.8505859L13.2495117,4.1408691    c0.4873047-0.4873047,1.1616211-0.7666016,1.8505859-0.7666016h23.7583008c1.9736328,0,3.5791016,1.6054688,3.5791016,3.5791016    v14.7885742c0,0.5522461-0.4472656,1-1,1s-1-0.4477539-1-1V6.9533691c0-0.8706055-0.7080078-1.5791016-1.5791016-1.5791016    H15.1000977c-0.1625977,0-0.3217773,0.065918-0.4365234,0.1806641L4.1835938,16.0344238    c-0.1162109,0.1166992-0.1806641,0.2719727-0.1806641,0.4370117v39.2998047c0,0.8637695,0.703125,1.5664063,1.5668945,1.5664063    h33.2885742c0.8710938,0,1.5791016-0.7084961,1.5791016-1.5795898v-6.5571289c0-0.5522461,0.4472656-1,1-1s1,0.4477539,1,1    v6.5571289C42.4375,57.7316895,40.8320313,59.3376465,38.8583984,59.3376465z" style="fill: rgb(192, 192, 192);"/>
    </g>
    <g>
      <path d="M46.7255859,23.6447754c-0.5527344,0-1-0.4477539-1-1v-9.1005859c0-0.8857422-0.6933594-1.5795898-1.5791016-1.5795898    H41.4375c-0.5527344,0-1-0.4477539-1-1s0.4472656-1,1-1h2.7089844c1.9736328,0,3.5791016,1.605957,3.5791016,3.5795898v9.1005859    C47.7255859,23.1970215,47.2783203,23.6447754,46.7255859,23.6447754z" style="fill: rgb(192, 192, 192);"/>
    </g>
    <g>
      <path d="M44.1464844,64.6257324H12.1601563c-1.9663086,0-3.5664063-1.6000977-3.5664063-3.5664063v-2.7216797    c0-0.5522461,0.4477539-1,1-1h29.2646484c0.8710938,0,1.5791016-0.7084961,1.5791016-1.5795898v-6.5571289    c0-0.5522461,0.4472656-1,1-1s1,0.4477539,1,1v6.5571289c0,1.9736328-1.6054688,3.5795898-3.5791016,3.5795898H10.59375v1.7216797    c0,0.8637695,0.7026367,1.5664063,1.5664063,1.5664063h31.9863281c0.8710938,0,1.5791016-0.7026367,1.5791016-1.5664063    V48.2980957c0-0.5522461,0.4472656-1,1-1s1,0.4477539,1,1v12.7612305    C47.7255859,63.0256348,46.1201172,64.6257324,44.1464844,64.6257324z" style="fill: rgb(192, 192, 192);"/>
    </g>
    <g>
      <path d="M13.2285156,19.0227051H3.0014648c-0.5522461,0-1-0.4477539-1-1v-1.5458984    c0-0.6889648,0.2792969-1.3632813,0.7666016-1.8505859L13.2456055,4.1486816    c0.4873047-0.4873047,1.1616211-0.7666016,1.8505859-0.7666016h1.5454102c0.5522461,0,1,0.4477539,1,1v10.2270508    C17.6416016,17.0427246,15.6621094,19.0227051,13.2285156,19.0227051z M4.0014648,17.0227051h9.2270508    c1.3305664,0,2.4130859-1.0825195,2.4130859-2.4135742V5.3820801h-0.5454102c-0.1625977,0-0.3217773,0.065918-0.4365234,0.1806641    L4.1821289,16.0402832c-0.1147461,0.1147461-0.1806641,0.2739258-0.1806641,0.4365234V17.0227051z" style="fill: rgb(192, 192, 192);"/>
    </g>
    <g>
      <path d="M40.9111328,50.2087402c-3.9394531,0-7.6416016-1.5327148-10.4257813-4.3164063    c-5.7421875-5.7421875-5.7373047-15.0913086,0.0117188-20.8398438c2.7832031-2.7836914,6.4814453-4.3164063,10.4140625-4.3164063    s7.6308594,1.5327148,10.4140625,4.3164063l0,0l0,0c2.7841797,2.7836914,4.3193359,6.484375,4.3232422,10.4194336    c0.0029297,3.9370117-1.5283203,7.6376953-4.3115234,10.4204102    C48.5537109,48.6760254,44.8515625,50.2087402,40.9111328,50.2087402z M40.9111328,22.736084    c-3.3984375,0-6.5947266,1.324707-9,3.7304688c-4.96875,4.9692383-4.9746094,13.0488281-0.0117188,18.0117188    c2.40625,2.4057617,5.6064453,3.7304688,9.0117188,3.7304688c3.40625,0,6.6064453-1.324707,9.0117188-3.7304688    c2.4052734-2.4047852,3.7275391-5.6025391,3.7255859-9.0048828c-0.0029297-3.4013672-1.3300781-6.6000977-3.7373047-9.0068359l0,0    C47.5058594,24.060791,44.3095703,22.736084,40.9111328,22.736084z" style="fill: rgb(192, 192, 192);"/>
    </g>
    <g>
      <path d="M40.9111328,45.0500488c-2.5605469,0-4.9667969-0.9960938-6.7773438-2.8051758    c-3.7304688-3.7314453-3.7255859-9.8071289,0.0107422-13.5439453c1.8095703-1.809082,4.2128906-2.8051758,6.7666016-2.8051758    c2.5556641,0,4.9580078,0.9960938,6.7666016,2.8051758c3.7363281,3.7373047,3.7421875,9.8129883,0.0117188,13.543457    C45.8789063,44.0539551,43.4716797,45.0500488,40.9111328,45.0500488z M40.9111328,27.895752    c-2.0195313,0-3.9208984,0.7880859-5.3525391,2.2192383c-2.9570313,2.9570313-2.9619141,7.7641602-0.0107422,10.715332    c1.4326172,1.4311523,3.3369141,2.2197266,5.3632813,2.2197266s3.9316406-0.7885742,5.3642578-2.2202148    c2.9501953-2.9506836,2.9453125-7.7573242-0.0117188-10.7148438C44.8330078,28.6838379,42.9316406,27.895752,40.9111328,27.895752    z" style="fill: rgb(192, 192, 192);"/>
    </g>
    <g>
      <path d="M51.9599609,51.7658691c-0.2558594,0-0.5117188-0.0976563-0.7070313-0.2929688l-3.6894531-3.6889648    c-0.2148438-0.2148438-0.3203125-0.515625-0.2871094-0.8173828c0.0341797-0.3022461,0.203125-0.5722656,0.4599609-0.7348633    c0.7851563-0.496582,1.4990234-1.0708008,2.1835938-1.7548828c0.6767578-0.6757813,1.2626953-1.40625,1.7431641-2.1713867    c0.1611328-0.2578125,0.4316406-0.4277344,0.734375-0.4619141c0.3066406-0.0356445,0.6044922,0.0717773,0.8193359,0.2866211    l3.6894531,3.6889648c0.1875,0.1875,0.2929688,0.4418945,0.2929688,0.7070313S57.09375,47.0456543,56.90625,47.2331543    l-4.2392578,4.2397461C52.4716797,51.6682129,52.2158203,51.7658691,51.9599609,51.7658691z M49.8222656,47.2141113    l2.1376953,2.1376953l2.8251953-2.8256836l-2.1367188-2.1362305c-0.3974609,0.5219727-0.8369141,1.0239258-1.3144531,1.5014648    C50.8554688,46.369873,50.3496094,46.8122559,49.8222656,47.2141113z" style="fill: rgb(192, 192, 192);"/>
    </g>
    <g>
      <path d="M60.6142578,60.5656738c-1.3789063,0-2.7587891-0.5249023-3.8085938-1.5751953l-5.5654297-5.565918    c-0.921875-0.921875-0.921875-2.4228516,0-3.3452148l4.2724609-4.2724609c0.9228516-0.921875,2.4238281-0.921875,3.3447266,0    l5.5664063,5.565918l0,0c2.0996094,2.1000977,2.0996094,5.5170898,0,7.6176758    C63.3740234,60.0407715,61.9941406,60.5656738,60.6142578,60.5656738z M57.1845703,47.1140137    c-0.0927734,0-0.1865234,0.0356445-0.2578125,0.1069336l-4.2724609,4.2719727c-0.1425781,0.1425781-0.1425781,0.375,0,0.5175781    l5.5654297,5.565918c1.3203125,1.3208008,3.4697266,1.3188477,4.7900391,0c1.3203125-1.3208008,1.3203125-3.4692383,0-4.7895508    l-5.5664063-5.565918C57.3720703,47.1496582,57.2783203,47.1140137,57.1845703,47.1140137z" style="fill: rgb(192, 192, 192);"/>
    </g>
    <g>
      <path d="M39.3271484,39.1159668c-0.265625,0-0.5195313-0.1054688-0.7070313-0.2929688l-1.9052734-1.9052734    c-0.390625-0.390625-0.390625-1.0234375,0-1.4140625s1.0234375-0.390625,1.4140625,0l1.1982422,1.1982422l4.3671875-4.3676758    c0.390625-0.390625,1.0234375-0.390625,1.4140625,0s0.390625,1.0234375,0,1.4140625l-5.0742188,5.074707    C39.8466797,39.010498,39.5927734,39.1159668,39.3271484,39.1159668z" style="fill: rgb(192, 192, 192);"/>
    </g>
    <g>
      <path d="M22.359375,24.1442871h-15c-0.5522461,0-1-0.4477539-1-1s0.4477539-1,1-1h15c0.5527344,0,1,0.4477539,1,1    S22.9121094,24.1442871,22.359375,24.1442871z" style="fill: rgb(192, 192, 192);"/>
    </g>
    <g>
      <path d="M22.359375,29.1442871h-15c-0.5522461,0-1-0.4477539-1-1s0.4477539-1,1-1h15c0.5527344,0,1,0.4477539,1,1    S22.9121094,29.1442871,22.359375,29.1442871z" style="fill: rgb(192, 192, 192);"/>
    </g>
    <g>
      <path d="M36.359375,11.1442871h-15c-0.5527344,0-1-0.4477539-1-1s0.4472656-1,1-1h15c0.5527344,0,1,0.4477539,1,1    S36.9121094,11.1442871,36.359375,11.1442871z" style="fill: rgb(192, 192, 192);"/>
    </g>
    <g>
      <path d="M36.359375,16.1442871h-15c-0.5527344,0-1-0.4477539-1-1s0.4472656-1,1-1h15c0.5527344,0,1,0.4477539,1,1    S36.9121094,16.1442871,36.359375,16.1442871z" style="fill: rgb(192, 192, 192);"/>
    </g>
    <g>
      <path d="M22.359375,34.1442871h-15c-0.5522461,0-1-0.4477539-1-1s0.4477539-1,1-1h15c0.5527344,0,1,0.4477539,1,1    S22.9121094,34.1442871,22.359375,34.1442871z" style="fill: rgb(192, 192, 192);"/>
    </g>
    <g>
      <path d="M22.359375,39.1442871h-15c-0.5522461,0-1-0.4477539-1-1s0.4477539-1,1-1h15c0.5527344,0,1,0.4477539,1,1    S22.9121094,39.1442871,22.359375,39.1442871z" style="fill: rgb(192, 192, 192);"/>
    </g>
    <g>
      <path d="M22.359375,44.1442871h-15c-0.5522461,0-1-0.4477539-1-1s0.4477539-1,1-1h15c0.5527344,0,1,0.4477539,1,1    S22.9121094,44.1442871,22.359375,44.1442871z" style="fill: rgb(192, 192, 192);"/>
    </g>
    <g>
      <path d="M22.359375,49.1442871h-15c-0.5522461,0-1-0.4477539-1-1s0.4477539-1,1-1h15c0.5527344,0,1,0.4477539,1,1    S22.9121094,49.1442871,22.359375,49.1442871z" style="fill: rgb(192, 192, 192);"/>
    </g>
    <g>
      <path d="M22.359375,54.1442871h-15c-0.5522461,0-1-0.4477539-1-1s0.4477539-1,1-1h15c0.5527344,0,1,0.4477539,1,1    S22.9121094,54.1442871,22.359375,54.1442871z" style="fill: rgb(192, 192, 192);"/>
    </g>
    <g>
      <path d="M53.6474609,55.4182129c-0.2558594,0-0.5117188-0.0976563-0.7070313-0.2929688    c-0.390625-0.390625-0.390625-1.0234375,0-1.4140625l6.2041016-6.2036133c0.390625-0.390625,1.0234375-0.390625,1.4140625,0    s0.390625,1.0234375,0,1.4140625l-6.2041016,6.2036133C54.1591797,55.3205566,53.9033203,55.4182129,53.6474609,55.4182129z" style="fill: rgb(192, 192, 192);"/>
    </g>
    <g>
      <path d="M56.6474609,58.4182129c-0.2558594,0-0.5117188-0.0976563-0.7070313-0.2929688    c-0.390625-0.390625-0.390625-1.0234375,0-1.4140625l6.2041016-6.2036133c0.390625-0.390625,1.0234375-0.390625,1.4140625,0    s0.390625,1.0234375,0,1.4140625l-6.2041016,6.2036133C57.1591797,58.3205566,56.9033203,58.4182129,56.6474609,58.4182129z" style="fill: rgb(192, 192, 192);"/>
    </g>
  </g>
</svg>